<?xml version="1.0" encoding="utf-8"?>
<!-- Generator: Adobe Illustrator 26.3.1, SVG Export Plug-In . SVG Version: 6.00 Build 0)  -->
<svg version="1.1" id="Layer_1" xmlns="http://www.w3.org/2000/svg" xmlns:xlink="http://www.w3.org/1999/xlink" x="0px" y="0px"
	 viewBox="0 0 65 65" style="enable-background:new 0 0 65 65;" xml:space="preserve">
<style type="text/css">
	.st0{fill:#FFFFFF;}
</style>
<g id="XMLID_4504_">
	<path id="XMLID_4514_" d="M46.1,15.6H18.9c-2.8,0-5,2.3-5,5v17.4c0,2.8,2.3,5,5,5h17.7l9.1,6.1c0.2,0.1,0.4,0.2,0.5,0.2
		c0.2,0,0.3,0,0.5-0.1c0.3-0.2,0.5-0.5,0.5-0.9v-5.8c1.8-0.7,3.9-2.4,3.9-4.5V20.7C51.1,17.9,48.8,15.6,46.1,15.6z M49.2,38.1
		c0,1.1-1.7,2.5-3.2,2.9c-0.4,0.1-0.7,0.5-0.7,0.9v4.6l-7.8-5.3c-0.2-0.1-0.3-0.2-0.5-0.2H18.9c-1.7,0-3.1-1.4-3.1-3.1V20.7
		c0-1.7,1.4-3.1,3.1-3.1h27.1c1.7,0,3.1,1.4,3.1,3.1V38.1z"/>
	<path id="XMLID_4511_" d="M43.9,22.1H21c-1,0-1.8,0.8-1.8,1.8c0,1,0.8,1.8,1.8,1.8h22.9c1,0,1.8-0.8,1.8-1.8
		C45.7,22.9,44.9,22.1,43.9,22.1z M43.9,24.6H21c-0.4,0-0.7-0.3-0.7-0.7c0-0.4,0.3-0.7,0.7-0.7h22.9c0.4,0,0.7,0.3,0.7,0.7
		C44.6,24.3,44.3,24.6,43.9,24.6z"/>
	<path id="XMLID_4508_" d="M43.9,27.5H21c-1,0-1.8,0.8-1.8,1.8c0,1,0.8,1.8,1.8,1.8h22.9c1,0,1.8-0.8,1.8-1.8
		C45.7,28.3,44.9,27.5,43.9,27.5z M43.9,29.9H21c-0.4,0-0.7-0.3-0.7-0.7c0-0.4,0.3-0.7,0.7-0.7h22.9c0.4,0,0.7,0.3,0.7,0.7
		C44.6,29.6,44.3,29.9,43.9,29.9z"/>
	<path id="XMLID_4505_" d="M43.9,32.6H21c-1,0-1.8,0.8-1.8,1.8c0,1,0.8,1.8,1.8,1.8h22.9c1,0,1.8-0.8,1.8-1.8
		C45.7,33.4,44.9,32.6,43.9,32.6z M43.9,35.1H21c-0.4,0-0.7-0.3-0.7-0.7c0-0.4,0.3-0.7,0.7-0.7h22.9c0.4,0,0.7,0.3,0.7,0.7
		C44.6,34.8,44.3,35.1,43.9,35.1z"/>
</g>
<g id="XMLID_4651_">
	<path id="XMLID_4652_" class="st0" d="M165.3,254.9l3,0c16.9-0.7,30.1-14.5,30.1-31.4c0-16.9-13.2-30.6-30.1-31.4l-3,0c0,0,0,0,0,0
		c-16.7,0.9-29.7,14.6-29.7,31.3S148.6,254,165.3,254.9z M146.3,243.8c2-1.4,4.1-2.7,6.4-3.7c2.2,4.5,5.2,8.5,8.9,11.9
		C155.9,250.9,150.5,248.1,146.3,243.8z M165.7,252.2c-4.6-3.5-8.3-7.9-10.7-13c3.4-1.3,7.1-2,10.7-2.1V252.2z M165.7,234.7
		c-4,0.2-8,1-11.7,2.3c-1.4-3.6-2.3-7.3-2.5-11.2l14.2,0V234.7z M165.7,223.3l-14.3,0c0-4,0.7-7.9,2-11.6c3.9,1.6,8.1,2.4,12.4,2.6
		V223.3z M171.8,252.1c4-3.5,7.1-7.7,9.2-12.4c2.4,1,4.8,2.3,6.9,3.7C183.6,248,177.9,251,171.8,252.1z M189.5,241.6
		c-2.3-1.7-4.9-3.1-7.6-4.1c1.4-3.7,2.3-7.7,2.5-11.7l11.3,0C195.4,231.6,193.2,237,189.5,241.6z M190.5,206.7
		c3.5,4.9,5.4,10.6,5.4,16.7l-11.3,0c0-4.1-0.7-8.2-2-12.1C185.4,210,188,208.5,190.5,206.7z M189,204.7c-2.2,1.7-4.7,3.1-7.2,4.2
		c-2.2-5.3-5.6-10.1-9.9-14C178.5,196.1,184.5,199.5,189,204.7z M168.2,195.1c5.1,3.9,9,9,11.3,14.8c-3.6,1.3-7.4,2-11.3,2.1V195.1z
		 M168.2,214.4c4.2-0.1,8.2-0.8,12.2-2.2c1.2,3.6,1.8,7.4,1.8,11.2l-14,0V214.4z M168.2,225.8l13.9,0c-0.2,3.8-1,7.4-2.4,10.9
		c-3.7-1.2-7.6-1.9-11.5-2V225.8z M168.2,237.1c3.6,0.1,7.2,0.7,10.6,1.8c-2.4,5.1-6,9.6-10.6,13.1V237.1z M165.7,194.9v17.1
		c-4-0.2-7.8-1-11.5-2.5C156.7,203.7,160.6,198.7,165.7,194.9z M161.7,195.1c-4.2,3.7-7.5,8.4-9.6,13.4c-2.4-1.1-4.6-2.5-6.7-4.2
		C149.6,199.5,155.3,196.2,161.7,195.1z M143.7,206.2c2.3,1.8,4.8,3.3,7.4,4.6c-1.4,4-2.1,8.3-2.1,12.6l-11,0
		C138,217.1,140,211.2,143.7,206.2z M138.1,225.8l11,0c0.2,4.2,1.1,8.3,2.7,12.1c-2.5,1.1-4.9,2.5-7.1,4.1
		C140.8,237.4,138.5,231.8,138.1,225.8z"/>
</g>
</svg>
