<?xml version="1.0" encoding="utf-8"?>
<!-- Generator: Adobe Illustrator 26.3.1, SVG Export Plug-In . SVG Version: 6.00 Build 0)  -->
<svg version="1.1" id="Layer_1" xmlns="http://www.w3.org/2000/svg" xmlns:xlink="http://www.w3.org/1999/xlink" x="0px" y="0px"
	 viewBox="0 0 65 65" style="enable-background:new 0 0 65 65;" xml:space="preserve">
<g>
	<g>
		<g>
			<g>
				<path d="M39.4,53.2c-0.4,0-0.6-0.3-0.6-0.6c0-7.1,3.7-11.5,5-12.7L36,22.9l-7.8,16.9c1.2,1.3,5,5.7,5,12.7
					c0,0.4-0.3,0.6-0.6,0.6c-0.4,0-0.6-0.3-0.6-0.6c0-7.6-4.9-12-4.9-12c-0.3-0.3-0.3-0.5-0.1-0.8L35.3,21c0.1-0.3,0.4-0.4,0.6-0.4
					l0,0c0.3,0,0.5,0.1,0.6,0.4l8.5,18.7c0.1,0.3,0,0.6-0.1,0.8c0,0-4.9,4.4-4.9,12C40.1,52.9,39.7,53.2,39.4,53.2z"/>
			</g>
			<g>
				<path d="M36,40.4c-0.3,0-0.5-0.3-0.5-0.5V21.3c0-0.3,0.3-0.5,0.5-0.5c0.3,0,0.5,0.3,0.5,0.5v18.6C36.5,40.1,36.2,40.4,36,40.4z"
					/>
			</g>
			<path d="M38.2,39.9c0,1.2-1,2.2-2.2,2.2s-2.2-1-2.2-2.2s1-2.2,2.2-2.2C37.2,37.7,38.2,38.6,38.2,39.9z"/>
		</g>
		<g>
			<g>
				<path d="M15.2,30.8L15.2,30.8c-0.3,0-0.5-0.3-0.5-0.5c0-0.1,0.1-3.9,3.4-6.9c3.1-2.7,7.9-3.9,14.2-3.2c7,0.6,12.4-0.4,15.6-3.2
					c2.7-2.3,3.2-5.2,3.2-6.6c0-0.3,0.3-0.5,0.5-0.5s0.5,0.3,0.5,0.5c0,1.7-0.6,4.8-3.6,7.5c-3.5,3.1-9.2,4.3-16.4,3.6
					c-6.1-0.6-10.5,0.4-13.3,3c-3,2.6-3,5.9-3,6.1C15.7,30.6,15.4,30.8,15.2,30.8z"/>
			</g>
			<rect x="48.3" y="8.4" width="5.2" height="5.2"/>
			<rect x="11.6" y="26.7" width="7.2" height="7.2"/>
		</g>
		<g>
			<g>
				<path d="M48.9,29.7C48.8,29.7,48.8,29.7,48.9,29.7L24.4,12.7c0,0-0.1-0.1,0-0.1c0,0,0.1-0.1,0.1,0l24.6,16.9
					C49.1,29.5,49.1,29.7,48.9,29.7L48.9,29.7z"/>
			</g>
			<g>
				<path d="M50.2,29.5c0,0.8-0.6,1.3-1.3,1.3c-0.6,0-1.3-0.6-1.3-1.3s0.6-1.3,1.3-1.3C49.6,28.2,50.2,28.9,50.2,29.5z"/>
				<path d="M26,12.7c0,0.8-0.6,1.3-1.3,1.3c-0.8,0-1.3-0.6-1.3-1.3c0-0.8,0.6-1.3,1.3-1.3C25.4,11.3,26,11.9,26,12.7z"/>
			</g>
		</g>
	</g>
	<rect x="26.9" y="52.5" width="18.1" height="4"/>
</g>
</svg>
