<?xml version="1.0" encoding="utf-8"?>
<!-- Generator: Adobe Illustrator 26.3.1, SVG Export Plug-In . SVG Version: 6.00 Build 0)  -->
<svg version="1.1" id="Layer_1" xmlns="http://www.w3.org/2000/svg" xmlns:xlink="http://www.w3.org/1999/xlink" x="0px" y="0px"
	 viewBox="0 0 65 65" style="enable-background:new 0 0 65 65;" xml:space="preserve">
<path d="M32.2,33.8c0.1,0,0.3-0.1,0.3-0.2l1-1c0.2-0.2,0.2-0.5,0-0.7c-0.2-0.2-0.5-0.2-0.7,0l-1,1c-0.2,0.2-0.2,0.5,0,0.7
	C31.9,33.7,32,33.8,32.2,33.8z"/>
<path d="M33.8,31.7c-0.2-0.2-0.5-0.2-0.7,0l-1.5,1.5c-0.2,0.2-0.2,0.5,0,0.7c0.1,0.1,0.3,0.2,0.3,0.2c0.1,0,0.3-0.1,0.3-0.2l1.5-1.5
	C33.9,32.2,33.9,31.9,33.8,31.7z"/>
<g>
	<g>
		<g>
			<path d="M38.4,46.3c-1.2,0-2.1-0.9-2.1-2.1s0.9-2.1,2.1-2.1c1.2,0,2.1,0.9,2.1,2.1C40.6,45.3,39.7,46.3,38.4,46.3z M38.4,42.7
				c-0.8,0-1.4,0.7-1.4,1.4c0,0.8,0.7,1.4,1.4,1.4c0.8,0,1.4-0.7,1.4-1.4C39.9,43.4,39.3,42.7,38.4,42.7z"/>
		</g>
		<g>
			<path d="M31.5,40.5c-0.1,0-0.3-0.1-0.3-0.2l-4.4-7.6c-0.7-1.3-0.6-2.8,0.3-3.9c0.1-0.1,0.2-0.2,0.3-0.2c0.1,0,0.3,0.1,0.3,0.2
				L33,38c0.1,0.2,0,0.4-0.2,0.5s-0.4,0-0.5-0.2l-5-8.6c-0.4,0.8-0.3,1.8,0.1,2.6l4.4,7.6C31.9,40.1,31.8,40.4,31.5,40.5
				C31.7,40.5,31.6,40.5,31.5,40.5z"/>
		</g>
		<g>
			<path d="M38.5,48.5c-1.5,0-2.9-0.8-3.8-2.2l-2.4-4.1c-0.1-0.2,0-0.4,0.2-0.5c0.2-0.1,0.4,0,0.5,0.2l2.4,4.1c1,1.7,3.2,2.3,5,1.3
				c1.7-1,2.3-3.2,1.3-5c-1-1.7-3.2-2.3-5-1.3c-0.6,0.3-1,0.8-1.3,1.3c-0.1,0.1-0.2,0.2-0.3,0.2l0,0c-0.1,0-0.3-0.1-0.3-0.2
				l-1.3-2.2c-0.1-0.2,0-0.4,0.2-0.5s0.4,0,0.5,0.2l0.9,1.7c0.3-0.4,0.8-0.8,1.3-1.1c2-1.2,4.7-0.5,5.9,1.6c1.2,2,0.5,4.7-1.6,5.9
				C39.9,48.4,39.2,48.5,38.5,48.5z"/>
		</g>
		<g>
			<g>
				<path d="M26.8,46.3c-1.2,0-2.1-0.9-2.1-2.1s0.9-2.1,2.1-2.1s2.1,0.9,2.1,2.1S28,46.3,26.8,46.3z M26.8,42.7
					c-0.8,0-1.4,0.7-1.4,1.4c0,0.8,0.7,1.4,1.4,1.4s1.4-0.7,1.4-1.4C28.3,43.4,27.6,42.7,26.8,42.7z"/>
			</g>
			<g>
				<path d="M26.8,48.5c-0.8,0-1.4-0.2-2.2-0.6c-2-1.2-2.8-3.9-1.6-5.9c1.2-2,3.9-2.8,5.9-1.6c0.5,0.3,0.9,0.7,1.3,1.1l4.5-7.7
					c0.1-0.2,0.3-0.3,0.5-0.2s0.3,0.3,0.2,0.5l-4.7,8.3c-0.1,0.1-0.2,0.2-0.3,0.2l0,0c-0.2,0-0.3-0.1-0.3-0.2
					c-0.3-0.6-0.8-1-1.3-1.3c-1.7-1-3.9-0.4-5,1.3c-1,1.7-0.4,3.9,1.3,5c1.7,1,3.9,0.4,5-1.3l7-12.2c0.1-0.2,0.3-0.3,0.5-0.2
					c0.2,0.1,0.3,0.3,0.2,0.5l-7,12.1C29.8,47.7,28.3,48.5,26.8,48.5z"/>
			</g>
		</g>
	</g>
	<g>
		<path d="M47.5,34.4H30.3c-0.2,0-0.3-0.2-0.3-0.3c0-0.2,0.2-0.3,0.3-0.3h17V17.9H18.1v15.8H28c0.2,0,0.3,0.2,0.3,0.3
			s-0.2,0.3-0.3,0.3H17.8c-0.3,0-0.5-0.3-0.5-0.5V17.6c0-0.3,0.3-0.5,0.5-0.5h29.7c0.3,0,0.5,0.3,0.5,0.5v16.2
			C47.9,34.2,47.7,34.4,47.5,34.4z"/>
	</g>
	<g>
		<path d="M45.2,31.1H28.3c-0.2,0-0.3-0.2-0.3-0.3c0-0.2,0.2-0.3,0.3-0.3h16.6v-9.2H20.3v9.2h6.5c0.2,0,0.3,0.2,0.3,0.3
			s-0.2,0.3-0.3,0.3h-6.8c-0.2,0-0.3-0.2-0.3-0.3v-9.9c0-0.2,0.2-0.3,0.3-0.3h25.4c0.2,0,0.3,0.2,0.3,0.3v10
			C45.6,31,45.5,31.1,45.2,31.1z"/>
	</g>
	<g>
		<g>
			<path d="M20.6,19.5h-0.8c-0.2,0-0.3-0.2-0.3-0.3c0-0.2,0.2-0.3,0.3-0.3h0.7c0.2,0,0.3,0.2,0.3,0.3C20.9,19.3,20.8,19.5,20.6,19.5
				z"/>
		</g>
		<g>
			<path d="M23.7,19.5H23c-0.2,0-0.3-0.2-0.3-0.3c0-0.2,0.2-0.3,0.3-0.3h0.7c0.2,0,0.3,0.2,0.3,0.3C24.1,19.3,23.9,19.5,23.7,19.5z"
				/>
		</g>
		<g>
			<path d="M26.8,19.5h-0.7c-0.2,0-0.3-0.2-0.3-0.3c0-0.2,0.2-0.3,0.3-0.3h0.7c0.2,0,0.3,0.2,0.3,0.3C27.2,19.3,27,19.5,26.8,19.5z"
				/>
		</g>
		<g>
			<path d="M29.9,19.5h-0.7c-0.2,0-0.3-0.2-0.3-0.3c0-0.2,0.2-0.3,0.3-0.3h0.7c0.2,0,0.3,0.2,0.3,0.3C30.3,19.3,30.1,19.5,29.9,19.5
				z"/>
		</g>
		<g>
			<path d="M33,19.5h-0.7c-0.2,0-0.3-0.2-0.3-0.3c0-0.2,0.2-0.3,0.3-0.3H33c0.2,0,0.3,0.2,0.3,0.3C33.4,19.3,33.2,19.5,33,19.5z"/>
		</g>
		<g>
			<path d="M36.1,19.5h-0.7c-0.2,0-0.3-0.2-0.3-0.3c0-0.2,0.2-0.3,0.3-0.3h0.7c0.2,0,0.3,0.2,0.3,0.3C36.5,19.3,36.3,19.5,36.1,19.5
				z"/>
		</g>
		<g>
			<path d="M39.2,19.5h-0.7c-0.2,0-0.3-0.2-0.3-0.3c0-0.2,0.2-0.3,0.3-0.3h0.7c0.2,0,0.3,0.2,0.3,0.3C39.5,19.3,39.4,19.5,39.2,19.5
				z"/>
		</g>
		<g>
			<path d="M42.3,19.5h-0.7c-0.2,0-0.3-0.2-0.3-0.3c0-0.2,0.2-0.3,0.3-0.3h0.7c0.2,0,0.3,0.2,0.3,0.3C42.6,19.3,42.5,19.5,42.3,19.5
				z"/>
		</g>
		<g>
			<path d="M45.4,19.5h-0.7c-0.2,0-0.3-0.2-0.3-0.3c0-0.2,0.2-0.3,0.3-0.3h0.7c0.2,0,0.3,0.2,0.3,0.3C45.7,19.3,45.6,19.5,45.4,19.5
				z"/>
		</g>
	</g>
	<g>
		<g>
			<path d="M20.6,32.7h-0.8c-0.2,0-0.3-0.2-0.3-0.3c0-0.2,0.2-0.3,0.3-0.3h0.7c0.2,0,0.3,0.2,0.3,0.3C20.9,32.6,20.8,32.7,20.6,32.7
				z"/>
		</g>
		<g>
			<path d="M23.7,32.7H23c-0.2,0-0.3-0.2-0.3-0.3c0-0.2,0.2-0.3,0.3-0.3h0.7c0.2,0,0.3,0.2,0.3,0.3C24,32.6,23.9,32.7,23.7,32.7z"/>
		</g>
		<g>
			<path d="M33,32.7h-0.7c-0.2,0-0.3-0.2-0.3-0.3c0-0.2,0.2-0.3,0.3-0.3H33c0.2,0,0.3,0.2,0.3,0.3C33.3,32.6,33.2,32.7,33,32.7z"/>
		</g>
		<g>
			<path d="M36.1,32.7h-0.7c-0.2,0-0.3-0.2-0.3-0.3c0-0.2,0.2-0.3,0.3-0.3h0.7c0.2,0,0.3,0.2,0.3,0.3C36.4,32.6,36.3,32.7,36.1,32.7
				z"/>
		</g>
		<g>
			<path d="M39.2,32.7h-0.7c-0.2,0-0.3-0.2-0.3-0.3c0-0.2,0.2-0.3,0.3-0.3h0.7c0.2,0,0.3,0.2,0.3,0.3C39.5,32.6,39.4,32.7,39.2,32.7
				z"/>
		</g>
		<g>
			<path d="M42.3,32.7h-0.7c-0.2,0-0.3-0.2-0.3-0.3c0-0.2,0.2-0.3,0.3-0.3h0.7c0.2,0,0.3,0.2,0.3,0.3C42.6,32.6,42.5,32.7,42.3,32.7
				z"/>
		</g>
		<g>
			<path d="M45.4,32.7h-0.7c-0.2,0-0.3-0.2-0.3-0.3c0-0.2,0.2-0.3,0.3-0.3h0.7c0.2,0,0.3,0.2,0.3,0.3C45.7,32.6,45.6,32.7,45.4,32.7
				z"/>
		</g>
	</g>
	<g>
		<g>
			<path d="M30.9,29.1c-0.1,0-0.2,0-0.3-0.1c-0.2-0.1-0.3-0.3-0.3-0.4V23c0-0.2,0.1-0.3,0.3-0.4c0.2-0.1,0.3-0.1,0.5,0l4.7,2.8l0,0
				c0.2,0.1,0.3,0.3,0.3,0.4c0,0.2-0.1,0.3-0.3,0.4l0,0L31.1,29l0,0C31,29,30.9,29.1,30.9,29.1z M30.9,28.7L30.9,28.7L30.9,28.7z
				 M31.1,23.4v4.8l4-2.4L31.1,23.4z"/>
		</g>
	</g>
</g>
</svg>
