<?xml version="1.0" encoding="utf-8"?>
<!-- Generator: Adobe Illustrator 26.3.1, SVG Export Plug-In . SVG Version: 6.00 Build 0)  -->
<svg version="1.1" id="Layer_1" xmlns="http://www.w3.org/2000/svg" xmlns:xlink="http://www.w3.org/1999/xlink" x="0px" y="0px"
	 viewBox="0 0 40 40" style="enable-background:new 0 0 40 40;" xml:space="preserve">
<style type="text/css">
	.st0{fill:#E80505;}
</style>
<path class="st0" d="M7,20.6l3,3c0.8,0.8,2.2,2.2,3,3l3,3c0.8,0.8,2.2,0.8,3,0c0,0,0,0,0,0l3-3c0.8-0.8,2.2-2.2,3-3l3-3
	c0.3-0.3,0.6-0.6,1-1c0.6-0.6,1.3-1.3,1.8-1.8c0.1-0.1,0.2-0.2,0.3-0.3l3-3c0.8-0.8,0.8-2.2,0-3l-3-3c-0.8-0.8-2.2-0.8-3,0l-3,3
	c-0.1,0.1-0.1,0.1-0.2,0.2c-0.5,0.5-1.2,1.2-1.9,1.9c-0.1,0.1-0.3,0.3-0.4,0.4c-0.2,0.2-0.4,0.4-0.6,0.6l-3,3c0,0,0,0,0,0
	c-0.8,0.8-2.2,0.8-3,0l-3-3c-0.8-0.8-2.2-0.8-3,0L9,15.6l-2,2C6.2,18.4,6.2,19.8,7,20.6z"/>
</svg>
