<?xml version="1.0" encoding="utf-8"?>
<!-- Generator: Adobe Illustrator 26.3.1, SVG Export Plug-In . SVG Version: 6.00 Build 0)  -->
<svg version="1.1" id="Layer_1" xmlns="http://www.w3.org/2000/svg" xmlns:xlink="http://www.w3.org/1999/xlink" x="0px" y="0px"
	 viewBox="0 0 40 40" style="enable-background:new 0 0 40 40;" xml:space="preserve">
<style type="text/css">
	.st0{fill:#EF062D;}
</style>
<g>
	<g id="_x35_04_x2C__Bowl_x2C__ceremony_x2C__champion_x2C__cup_x2C__goblet">
		<g>
			<path class="st0" d="M63.9,9.4H68c0.1,0,0.2,0.1,0.2,0.2c0,0.1-0.1,0.2-0.2,0.2h-4.2v8h6.9V7.9h-6.9V9.4z M69.3,9.4
				c0,0,0.1-0.1,0.2-0.1c0,0,0.1,0,0.2,0.1c0,0,0.1,0.1,0.1,0.2c0,0.1,0,0.1-0.1,0.2c0,0-0.1,0.1-0.2,0.1c-0.1,0-0.1,0-0.2-0.1
				c0,0-0.1-0.1-0.1-0.2C69.2,9.5,69.3,9.5,69.3,9.4z"/>
			<path class="st0" d="M80-3.8v-0.8h-1.5v2v0.5C79.4-2.2,80-2.9,80-3.8z"/>
			<path class="st0" d="M69.2-3.8c0,0.9,0.6,1.6,1.5,1.7v-0.5v-2h-1.5V-3.8z"/>
			<path class="st0" d="M71.2-4.8v1.2h4.7c0.1,0,0.2,0.1,0.2,0.2c0,0.1-0.1,0.2-0.2,0.2h-4.7v0.5c0,1.9,1.5,3.4,3.3,3.5v3h-3.3v1.5
				h4.2c0.1,0,0.2,0.1,0.2,0.2c0,0.1-0.1,0.2-0.2,0.2h-4.2v1.8v10.2h6.9v-6.7V3.9h-3.1v-3c1.8-0.2,3.1-1.6,3.1-3.5v-2.2V-5h-6.9
				V-4.8z M76.7,5.5c0,0,0.1-0.1,0.2-0.1c0.1,0,0.1,0,0.2,0.1c0,0,0.1,0.1,0.1,0.2c0,0.1,0,0.1-0.1,0.2c0,0-0.1,0.1-0.2,0.1
				c-0.1,0-0.1,0-0.2-0.1c0,0-0.1-0.1-0.1-0.2C76.6,5.6,76.6,5.5,76.7,5.5z M76,13.6h-2.4v-0.8h0.9V11c0,0-0.1,0.1-0.2,0.2
				c-0.1,0-0.2,0.1-0.3,0.2c-0.1,0-0.2,0.1-0.3,0.1c-0.1,0-0.2,0-0.3,0v-0.8c0.1,0,0.2,0,0.3-0.1c0.1,0,0.2-0.1,0.3-0.2
				c0.1-0.1,0.2-0.1,0.3-0.2c0.1-0.1,0.1-0.1,0.2-0.2h0.8v2.7H76V13.6L76,13.6z"/>
			<path class="st0" d="M78.6,11.4v1.5h4.2c0.1,0,0.2,0.1,0.2,0.2c0,0.1-0.1,0.2-0.2,0.2h-4.2v4.5h6.9v-6.5H78.6z M84.4,13.3
				c0,0-0.1,0.1-0.2,0.1c-0.1,0-0.1,0-0.2-0.1c0,0-0.1-0.1-0.1-0.2c0-0.1,0-0.1,0.1-0.2c0,0,0.1-0.1,0.2-0.1c0.1,0,0.1,0,0.2,0.1
				c0,0,0.1,0.1,0.1,0.2C84.5,13.1,84.4,13.2,84.4,13.3z"/>
		</g>
	</g>
	<g id="Layer_1_3_">
	</g>
</g>
<g>
	<path class="st0" d="M23.1,25.3c3.4-2.8,4.5-6.3,4.7-10.3c-0.4,0.4-1.2,0.6-2.2,0.9c-1.5,0.4-3.5,0.5-5.6,0.5
		c-2.1,0-4.1-0.2-5.6-0.5c-1-0.2-1.8-0.5-2.2-0.9c0.2,4,1.3,7.5,4.7,10.3c3.9,3.3,1.9,7.4-1.1,7.4c-3,0-2.6,2.5,4.1,2.5
		s7.1-2.5,4.1-2.5C21.2,32.7,19.2,28.6,23.1,25.3z M21.8,24.1h-3.6v-0.4c0.1,0,0.3,0,0.5,0c0.2,0,0.4,0,0.5-0.1
		c0.1,0,0.2-0.1,0.3-0.2c0.1-0.1,0.1-0.2,0.1-0.3v-3.6h-1.3V19h0.3c0.4,0,0.7-0.1,1-0.2c0.3-0.1,0.5-0.3,0.6-0.4h0.4
		c0,0.2,0,0.5,0,0.8c0,0.3,0,0.6,0,0.8V23c0,0.1,0,0.2,0.1,0.3c0.1,0.1,0.1,0.2,0.2,0.2c0.1,0,0.2,0.1,0.4,0.1c0.2,0,0.4,0,0.5,0.1
		V24.1z"/>
	<path class="st0" d="M20,12.8c-1.9,0-3.7,0.2-5.1,0.5c-1.6,0.3-2,0.7-2.1,0.8c0.1,0.1,0.5,0.5,2.1,0.8c1.4,0.3,3.2,0.5,5.1,0.5
		c1.9,0,3.7-0.2,5.1-0.5c1.6-0.3,2-0.7,2.1-0.8c-0.1-0.1-0.5-0.5-2.1-0.8C23.7,12.9,21.9,12.8,20,12.8z"/>
	<path class="st0" d="M20,10.3c0.2,0,0.4-1.2,0.5-2.7c0-1.5-0.2-2.8-0.4-2.8c-0.3,0-0.5,1.2-0.5,2.8C19.6,9.1,19.8,10.3,20,10.3z"/>
	<path class="st0" d="M17.4,10.7c0.2-0.1,0.1-1.1-0.4-2.4C16.6,7,16,6,15.7,6.1c-0.3,0.1,0,1.1,0.5,2.4
		C16.7,9.7,17.2,10.7,17.4,10.7z"/>
	<path class="st0" d="M15.1,11.7c0.2-0.1-0.2-1-1-2c-0.8-1-1.7-1.6-1.9-1.5c-0.2,0.1,0.3,1,1.2,1.9C14.2,11.1,14.9,11.8,15.1,11.7z"
		/>
	<path class="st0" d="M13.1,13.2c0.1-0.1-0.3-0.7-1.1-1.3c-0.8-0.5-1.6-0.8-1.7-0.6c-0.2,0.2,0.4,0.7,1.2,1.2
		C12.3,13,13,13.4,13.1,13.2z"/>
	<path class="st0" d="M22.6,10.7c0.2,0.1,0.7-0.9,1.2-2.2c0.5-1.2,0.7-2.3,0.5-2.4C24,6,23.4,7,23,8.3C22.5,9.5,22.4,10.6,22.6,10.7
		z"/>
	<path class="st0" d="M26.6,10.1c0.8-0.9,1.4-1.8,1.2-1.9c-0.2-0.1-1.1,0.5-1.9,1.5c-0.8,1-1.2,1.9-1,2
		C25.1,11.8,25.8,11.1,26.6,10.1z"/>
	<path class="st0" d="M29.7,11.3c-0.2-0.2-1,0.1-1.7,0.6c-0.8,0.5-1.2,1.1-1.1,1.3c0.1,0.1,0.8-0.2,1.6-0.7
		C29.3,12,29.8,11.5,29.7,11.3z"/>
</g>
</svg>
