<?xml version="1.0" encoding="utf-8"?>
<!-- Generator: Adobe Illustrator 26.3.1, SVG Export Plug-In . SVG Version: 6.00 Build 0)  -->
<svg version="1.1" id="Layer_1" xmlns="http://www.w3.org/2000/svg" xmlns:xlink="http://www.w3.org/1999/xlink" x="0px" y="0px"
	 viewBox="0 0 40 40" style="enable-background:new 0 0 40 40;" xml:space="preserve">
<style type="text/css">
	.st0{fill:#E8092E;}
	.st1{fill:none;stroke:#E8092E;stroke-width:0.75;stroke-miterlimit:10;}
	.st2{fill:#FFFFFF;stroke:#E8092E;stroke-width:0.5;stroke-miterlimit:10;}
</style>
<path class="st0" d="M134.8,24.9h-19.5c-0.8,0-1.5-0.7-1.5-1.5V-1.2c0-0.8,0.7-1.5,1.5-1.5h13.5l0,11.4c0,0.1-0.1,0.2-0.2,0.2h-3
	c-0.3,0-0.6,0.3-0.6,0.6s0.3,0.6,0.6,0.6h3c0.8,0,1.4-0.6,1.4-1.4V8.2c0.3,0.2,0.6,0.2,1,0.2c0.4,0,0.7-0.1,1-0.2v0.6
	c0,0.8,0.6,1.4,1.4,1.4h8.1c0.8,0,1.4-0.6,1.4-1.4V0.9c0-0.3,0.1-0.5,0.3-0.7c0.2-0.2,0.4-0.3,0.7-0.3c0.5,0,1,0.4,1,1v20.5
	c0,0.3-0.1,0.5-0.3,0.7c-0.2,0.2-0.4,0.3-0.7,0.3c-0.5,0-1-0.4-1-1v-7.9c0-0.8-0.6-1.4-1.4-1.4h-8c-0.8,0-1.4,0.6-1.4,1.4v7.9
	c0,0.3-0.1,0.5-0.3,0.7c-0.2,0.2-0.4,0.3-0.7,0.3c-0.5,0-1-0.4-1-1v-7.9c0-0.8-0.6-1.4-1.4-1.4h-8c-0.8,0-1.4,0.6-1.4,1.4v7.9
	c0,0.3-0.1,0.5-0.3,0.7c-0.2,0.2-0.4,0.3-0.7,0.3c-0.5,0-1-0.4-1-1V0.9c0-0.3,0.1-0.5,0.3-0.7c0.2-0.2,0.4-0.3,0.7-0.3
	c0.5,0,1,0.4,1,1v7.9c0,0.8,0.6,1.4,1.4,1.4h2.3c0.3,0,0.6-0.3,0.6-0.6S123.1,9,122.8,9h-2.3c-0.1,0-0.2-0.1-0.2-0.2V0.9
	c0-1.2-1-2.2-2.2-2.2c-0.6,0-1.1,0.2-1.5,0.6c-0.4,0.4-0.6,1-0.6,1.5v20.5c0,1.2,1,2.2,2.2,2.2c0.6,0,1.1-0.2,1.5-0.6
	c0.4-0.4,0.6-1,0.6-1.5v-7.9c0-0.1,0.1-0.2,0.2-0.2h8c0.1,0,0.2,0.1,0.2,0.2v7.9c0,1.2,1,2.2,2.2,2.2c0.6,0,1.1-0.2,1.5-0.6
	c0.4-0.4,0.6-1,0.6-1.5v-7.9c0-0.1,0.1-0.2,0.2-0.2h8.1c0.1,0,0.2,0.1,0.2,0.2v7.9c0,1.2,1,2.2,2.2,2.2c0.6,0,1.1-0.2,1.5-0.6
	c0.4-0.4,0.6-1,0.6-1.5V0.9c0-1.2-1-2.2-2.2-2.2c-0.6,0-1.1,0.2-1.5,0.6c-0.4,0.4-0.6,1-0.6,1.5v7.9c0,0.1-0.1,0.2-0.2,0.2h-8.1
	c-0.1,0-0.2-0.1-0.2-0.2l0-11.4h5.1c0.3,0,0.6-0.3,0.6-0.6s-0.3-0.6-0.6-0.6h-5l0.4-1.9c0-0.2,0.1-0.4,0.3-0.5
	c0.9-0.8,1.4-2,1.4-3.3c0-2.4-1.9-4.3-4.3-4.4c-0.1,0-0.1,0-0.2,0c-0.1,0-0.3,0-0.4,0c0,0,0,0,0,0c0,0-0.1,0-0.1,0
	c-2.2,0.3-3.9,2.1-3.9,4.4c0,1.2,0.5,2.4,1.4,3.3c0.2,0.1,0.3,0.3,0.3,0.5l0.4,1.9h-13.3c-1.5,0-2.6,1.2-2.6,2.6v24.6
	c0,1.5,1.2,2.6,2.6,2.6h19.5c0.3,0,0.6-0.3,0.6-0.6C135.3,25.2,135.1,24.9,134.8,24.9z M130.9,7.3c-0.5,0-1-0.4-1-1v0c0,0,0,0,0,0
	v-8.9h2v8.9c0,0,0,0,0,0v0C131.9,6.8,131.5,7.3,130.9,7.3z M132.9-11.4c0,0.7-0.9,1.3-2,1.3s-2-0.6-2-1.3c0-0.6,0.7-1.2,1.6-1.3
	c0.1,0,0.3,0,0.4,0c0,0,0.1,0,0.1,0C132-12.7,132.9-12.1,132.9-11.4z M129.4-5.9c-0.1-0.4-0.3-0.8-0.7-1.2c-0.7-0.6-1.1-1.5-1.1-2.4
	c0-0.4,0.1-0.8,0.2-1.2c0.4,1,1.6,1.8,3,1.8c1.4,0,2.7-0.8,3-1.8c0.2,0.4,0.2,0.8,0.2,1.3c0,0.9-0.4,1.8-1.1,2.4
	c-0.3,0.3-0.6,0.7-0.7,1.2L132-3.8h-2.2L129.4-5.9z"/>
<path class="st0" d="M146.5-3.8H141c-0.3,0-0.6,0.3-0.6,0.6s0.3,0.6,0.6,0.6h5.6c0.8,0,1.5,0.7,1.5,1.5v24.6c0,0.8-0.7,1.5-1.5,1.5
	h-9c-0.3,0-0.6,0.3-0.6,0.6c0,0.3,0.3,0.6,0.6,0.6h9c1.5,0,2.6-1.2,2.6-2.6V-1.2C149.2-2.6,148-3.8,146.5-3.8z"/>
<path class="st0" d="M123.3,7.6c0.3,0,0.6-0.3,0.6-0.6s-0.3-0.6-0.6-0.6h-1.1c-0.3,0-0.6,0.3-0.6,0.6s0.3,0.6,0.6,0.6H123.3z"/>
<path class="st0" d="M122.2,14.7c-0.3,0-0.6,0.3-0.6,0.6c0,0.3,0.3,0.6,0.6,0.6h1.1c0.3,0,0.6-0.3,0.6-0.6c0-0.3-0.3-0.6-0.6-0.6
	H122.2z"/>
<path class="st0" d="M137.9,7.1c0,0.3,0.3,0.6,0.6,0.6h1.1c0.3,0,0.6-0.3,0.6-0.6s-0.3-0.6-0.6-0.6h-1.1
	C138.2,6.5,137.9,6.7,137.9,7.1z"/>
<path class="st0" d="M138.5,14.7c-0.3,0-0.6,0.3-0.6,0.6c0,0.3,0.3,0.6,0.6,0.6h1.1c0.3,0,0.6-0.3,0.6-0.6c0-0.3-0.3-0.6-0.6-0.6
	H138.5z"/>
<g>
	<ellipse transform="matrix(0.9726 -0.2325 0.2325 0.9726 -3.4043 4.731)" class="st1" cx="18.4" cy="16.8" rx="10.6" ry="10.6"/>
	<circle class="st1" cx="18.4" cy="16.8" r="8.7"/>
	<polyline class="st1" points="18.4,20.3 18.4,16.8 26,16.8 	"/>
</g>
<g>
	<rect x="17.5" y="5.3" class="st2" width="1.7" height="1.7"/>
	<rect x="17.5" y="26.6" class="st2" width="1.7" height="1.7"/>
	<rect x="28.3" y="16.1" class="st2" width="1.7" height="1.7"/>
	<rect x="6.9" y="16.1" class="st2" width="1.7" height="1.7"/>
</g>
<g>
	<polygon class="st0" points="25.8,24.1 26.9,33.4 29,29.8 33.1,29.9 	"/>
	<rect x="30" y="33.1" class="st0" width="1.6" height="1.6"/>
</g>
</svg>
