<?xml version="1.0" encoding="utf-8"?>
<!-- Generator: Adobe Illustrator 26.3.1, SVG Export Plug-In . SVG Version: 6.00 Build 0)  -->
<svg version="1.1" id="Layer_1" xmlns="http://www.w3.org/2000/svg" xmlns:xlink="http://www.w3.org/1999/xlink" x="0px" y="0px"
	 viewBox="0 0 40 40" style="enable-background:new 0 0 40 40;" xml:space="preserve">
<style type="text/css">
	.st0{fill:#FFFFFF;}
	.st1{fill:#FFFFFE;}
</style>
<path class="st0" d="M115.8,30.3l-2.6-21.8c-0.2-1.6-1.5-2.7-3.1-2.7H86.7c-0.3,0-0.6,0.3-0.6,0.6c0,0.3,0.3,0.6,0.6,0.6h23.5
	c1,0,1.8,0.7,1.9,1.7l2.6,21.8c0.1,0.5-0.1,1.1-0.5,1.5c-0.4,0.4-0.9,0.6-1.4,0.6h-5.6c0.1-0.2,0.1-0.4,0.1-0.7c0-0.2,0-0.5-0.1-0.7
	h4.8c0.3,0,0.7-0.1,0.9-0.4c0.2-0.3,0.3-0.6,0.3-1l-2.4-20.5c-0.1-0.6-0.6-1.1-1.2-1.1h-4.5c-0.3,0-0.6,0.3-0.6,0.6
	c0,0.3,0.3,0.6,0.6,0.6h4.5c0,0,0,0,0,0l2.4,20.5c0,0,0,0,0,0c0,0,0,0,0,0h-6v-3.2l1.7,1.1c0.1,0.1,0.2,0.1,0.3,0.1
	c0.2,0,0.4-0.1,0.5-0.3c0.2-0.3,0.1-0.6-0.2-0.8l-10.1-6.3c-0.3-0.2-0.6-0.1-0.8,0.2c-0.2,0.3-0.1,0.6,0.2,0.8l7.2,4.5v3.9H91.5
	v-3.2l1.7,1.1c0.1,0.1,0.2,0.1,0.3,0.1c0.2,0,0.4-0.1,0.5-0.3c0.2-0.3,0.1-0.6-0.2-0.8l-10.1-6.3c-0.3-0.2-0.6-0.1-0.8,0.2
	c-0.2,0.3-0.1,0.6,0.2,0.8l7.2,4.5v3.9h-4.2c-0.3,0-0.6,0.3-0.6,0.6c0,0.3,0.3,0.6,0.6,0.6h3c-0.1,0.2-0.1,0.4-0.1,0.7
	c0,0.2,0,0.5,0.1,0.7H78.9c-0.6,0-1.1-0.2-1.4-0.6c-0.4-0.4-0.5-1-0.5-1.5l2.6-21.8c0.1-1,0.9-1.7,1.9-1.7h2.5
	c0.3,0,0.6-0.3,0.6-0.6c0-0.3-0.3-0.6-0.6-0.6h-2.5c-1.6,0-2.9,1.2-3.1,2.7l-2.6,21.8c-0.1,0.9,0.2,1.8,0.8,2.4c0.6,0.7,1.4,1,2.3,1
	h33.8c0.9,0,1.7-0.4,2.3-1C115.6,32.1,115.9,31.2,115.8,30.3z M106.1,32c0,0.4-0.3,0.7-0.7,0.7h0c-0.4,0-0.7-0.3-0.7-0.7
	c0-0.4,0.3-0.7,0.7-0.7h0C105.8,31.3,106.1,31.6,106.1,32z M103.7,32.6H92.6c0.1-0.2,0.1-0.4,0.1-0.7c0-0.2,0-0.5-0.1-0.7h11.1
	c-0.1,0.2-0.1,0.4-0.1,0.7C103.6,32.2,103.6,32.4,103.7,32.6z M90.2,32c0-0.4,0.3-0.7,0.7-0.7h0c0.4,0,0.7,0.3,0.7,0.7
	c0,0.4-0.3,0.7-0.7,0.7h0C90.5,32.6,90.2,32.3,90.2,32z"/>
<path class="st0" d="M10.9,16.4c0.1,0,0.3-0.1,0.4-0.2l1.2-1.2c0.2-0.2,0.2-0.6,0-0.8c-0.2-0.2-0.6-0.2-0.8,0l-1.2,1.2
	c-0.2,0.2-0.2,0.6,0,0.8C10.6,16.3,10.7,16.4,10.9,16.4z"/>
<path class="st0" d="M10.8,11.9c-0.2-0.2-0.6-0.2-0.8,0l-1.8,1.8c-0.2,0.2-0.2,0.6,0,0.8c0.1,0.1,0.3,0.2,0.4,0.2s0.3-0.1,0.4-0.2
	l1.8-1.8C11,12.5,11,12.1,10.8,11.9z"/>
<g>
	<g>
		<g>
			<path class="st1" d="M27.3,36c-1.4,0-2.5-1.1-2.5-2.5c0-1.4,1.1-2.5,2.5-2.5c1.4,0,2.5,1.1,2.5,2.5C29.9,34.8,28.8,36,27.3,36z
				 M27.3,31.7c-0.9,0-1.7,0.8-1.7,1.7s0.8,1.7,1.7,1.7s1.7-0.8,1.7-1.7S28.3,31.7,27.3,31.7z"/>
		</g>
		<g>
			<path class="st1" d="M19.1,29c-0.1,0-0.3-0.1-0.4-0.2l-5.2-9c-0.8-1.5-0.7-3.3,0.3-4.6c0.1-0.1,0.2-0.2,0.4-0.2
				c0.1,0,0.3,0.1,0.3,0.2l6.3,10.9c0.1,0.2,0,0.5-0.2,0.6c-0.2,0.1-0.5,0-0.6-0.2l-5.9-10.2c-0.5,1-0.4,2.2,0.1,3.1l5.2,9
				c0.1,0.2,0,0.5-0.2,0.6C19.3,29,19.2,29,19.1,29z"/>
		</g>
		<g>
			<path class="st1" d="M27.4,38.6c-1.8,0-3.5-0.9-4.5-2.6l-2.8-4.9c-0.1-0.2,0-0.5,0.2-0.6c0.2-0.1,0.5,0,0.6,0.2l2.8,4.9
				c1.2,2,3.8,2.7,5.9,1.6c2-1.2,2.7-3.8,1.6-5.9c-1.2-2-3.8-2.7-5.9-1.6c-0.7,0.4-1.2,0.9-1.6,1.6c-0.1,0.1-0.2,0.2-0.4,0.2l0,0
				c-0.1,0-0.3-0.1-0.4-0.2l-1.5-2.6c-0.1-0.2,0-0.5,0.2-0.6c0.2-0.1,0.5,0,0.6,0.2l1.1,2c0.4-0.5,0.9-1,1.5-1.3
				c2.4-1.4,5.6-0.6,7,1.9c1.4,2.4,0.6,5.6-1.9,7C29.1,38.4,28.2,38.6,27.4,38.6z"/>
		</g>
		<g>
			<g>
				<path class="st1" d="M13.5,36c-1.4,0-2.5-1.1-2.5-2.5c0-1.4,1.1-2.5,2.5-2.5s2.5,1.1,2.5,2.5S14.9,36,13.5,36z M13.5,31.7
					c-0.9,0-1.7,0.8-1.7,1.7s0.8,1.7,1.7,1.7s1.7-0.8,1.7-1.7S14.4,31.7,13.5,31.7z"/>
			</g>
			<g>
				<path class="st1" d="M13.5,38.6c-0.9,0-1.7-0.2-2.6-0.7c-2.4-1.4-3.3-4.6-1.9-7s4.6-3.3,7-1.9c0.6,0.3,1.1,0.8,1.5,1.3l5.3-9.2
					c0.1-0.2,0.4-0.3,0.6-0.2c0.2,0.1,0.3,0.4,0.2,0.6L18,31.4c-0.1,0.1-0.2,0.2-0.4,0.2l0,0c-0.2,0-0.3-0.1-0.4-0.2
					c-0.4-0.7-0.9-1.2-1.6-1.6c-2-1.2-4.7-0.5-5.9,1.6c-1.2,2-0.5,4.7,1.6,5.9c2,1.2,4.7,0.5,5.9-1.6l8.3-14.5
					c0.1-0.2,0.4-0.3,0.6-0.2c0.2,0.1,0.3,0.4,0.2,0.6L18,36C17,37.6,15.3,38.6,13.5,38.6z"/>
			</g>
		</g>
	</g>
	<g>
		<path class="st1" d="M38.1,21.8H17.6c-0.2,0-0.4-0.2-0.4-0.4c0-0.2,0.2-0.4,0.4-0.4h20.2V2.1H3.1v18.8h11.8c0.2,0,0.4,0.2,0.4,0.4
			c0,0.2-0.2,0.4-0.4,0.4H2.8c-0.3,0-0.6-0.3-0.6-0.6V1.8c0-0.3,0.3-0.6,0.6-0.6h35.3c0.3,0,0.6,0.3,0.6,0.6v19.3
			C38.6,21.5,38.4,21.8,38.1,21.8z"/>
	</g>
	<g>
		<path class="st1" d="M35.4,17.8H15.3c-0.2,0-0.4-0.2-0.4-0.4c0-0.2,0.2-0.4,0.4-0.4H35V6H5.7v11h7.7c0.2,0,0.4,0.2,0.4,0.4
			s-0.2,0.4-0.4,0.4H5.3c-0.2,0-0.4-0.2-0.4-0.4V5.6c0-0.2,0.2-0.4,0.4-0.4h30.2c0.2,0,0.4,0.2,0.4,0.4v11.9
			C35.8,17.7,35.7,17.8,35.4,17.8z"/>
	</g>
	<g>
		<g>
			<path class="st1" d="M6.1,4H5.2C5,4,4.8,3.8,4.8,3.6S5,3.2,5.2,3.2h0.8c0.2,0,0.4,0.2,0.4,0.4C6.5,3.8,6.3,4,6.1,4z"/>
		</g>
		<g>
			<path class="st1" d="M9.8,4H8.9C8.7,4,8.5,3.8,8.5,3.6s0.2-0.4,0.4-0.4h0.8c0.2,0,0.4,0.2,0.4,0.4C10.2,3.8,10,4,9.8,4z"/>
		</g>
		<g>
			<path class="st1" d="M13.5,4h-0.8c-0.2,0-0.4-0.2-0.4-0.4s0.2-0.4,0.4-0.4h0.8c0.2,0,0.4,0.2,0.4,0.4C13.9,3.8,13.7,4,13.5,4z"/>
		</g>
		<g>
			<path class="st1" d="M17.1,4h-0.8c-0.2,0-0.4-0.2-0.4-0.4s0.2-0.4,0.4-0.4h0.8c0.2,0,0.4,0.2,0.4,0.4C17.6,3.8,17.4,4,17.1,4z"/>
		</g>
		<g>
			<path class="st1" d="M20.8,4H20c-0.2,0-0.4-0.2-0.4-0.4s0.2-0.4,0.4-0.4h0.8c0.2,0,0.4,0.2,0.4,0.4C21.3,3.8,21.1,4,20.8,4z"/>
		</g>
		<g>
			<path class="st1" d="M24.5,4h-0.8c-0.2,0-0.4-0.2-0.4-0.4s0.2-0.4,0.4-0.4h0.8c0.2,0,0.4,0.2,0.4,0.4C25,3.8,24.8,4,24.5,4z"/>
		</g>
		<g>
			<path class="st1" d="M28.2,4h-0.8C27.2,4,27,3.8,27,3.6s0.2-0.4,0.4-0.4h0.8c0.2,0,0.4,0.2,0.4,0.4C28.6,3.8,28.5,4,28.2,4z"/>
		</g>
		<g>
			<path class="st1" d="M31.9,4h-0.8c-0.2,0-0.4-0.2-0.4-0.4s0.2-0.4,0.4-0.4h0.8c0.2,0,0.4,0.2,0.4,0.4C32.3,3.8,32.1,4,31.9,4z"/>
		</g>
		<g>
			<path class="st1" d="M35.6,4h-0.8c-0.2,0-0.4-0.2-0.4-0.4s0.2-0.4,0.4-0.4h0.8c0.2,0,0.4,0.2,0.4,0.4C36,3.8,35.8,4,35.6,4z"/>
		</g>
	</g>
	<g>
		<g>
			<path class="st1" d="M6.1,19.8H5.2c-0.2,0-0.4-0.2-0.4-0.4s0.2-0.4,0.4-0.4h0.8c0.2,0,0.4,0.2,0.4,0.4S6.3,19.8,6.1,19.8z"/>
		</g>
		<g>
			<path class="st1" d="M9.8,19.8H8.9c-0.2,0-0.4-0.2-0.4-0.4s0.2-0.4,0.4-0.4h0.8c0.2,0,0.4,0.2,0.4,0.4S10,19.8,9.8,19.8z"/>
		</g>
		<g>
			<path class="st1" d="M20.8,19.8H20c-0.2,0-0.4-0.2-0.4-0.4s0.2-0.4,0.4-0.4h0.8c0.2,0,0.4,0.2,0.4,0.4S21.1,19.8,20.8,19.8z"/>
		</g>
		<g>
			<path class="st1" d="M24.5,19.8h-0.8c-0.2,0-0.4-0.2-0.4-0.4s0.2-0.4,0.4-0.4h0.8c0.2,0,0.4,0.2,0.4,0.4S24.8,19.8,24.5,19.8z"/>
		</g>
		<g>
			<path class="st1" d="M28.2,19.8h-0.8c-0.2,0-0.4-0.2-0.4-0.4s0.2-0.4,0.4-0.4h0.8c0.2,0,0.4,0.2,0.4,0.4S28.5,19.8,28.2,19.8z"/>
		</g>
		<g>
			<path class="st1" d="M31.9,19.8h-0.8c-0.2,0-0.4-0.2-0.4-0.4s0.2-0.4,0.4-0.4h0.8c0.2,0,0.4,0.2,0.4,0.4S32.1,19.8,31.9,19.8z"/>
		</g>
		<g>
			<path class="st1" d="M35.6,19.8h-0.8c-0.2,0-0.4-0.2-0.4-0.4s0.2-0.4,0.4-0.4h0.8c0.2,0,0.4,0.2,0.4,0.4S35.8,19.8,35.6,19.8z"/>
		</g>
	</g>
	<g>
		<g>
			<path class="st1" d="M18.3,15.5c-0.1,0-0.2,0-0.3-0.1c-0.2-0.1-0.3-0.3-0.3-0.5V8.2c0-0.2,0.1-0.4,0.3-0.5c0.2-0.1,0.4-0.1,0.6,0
				l5.6,3.3l0,0c0.2,0.1,0.3,0.3,0.3,0.5c0,0.2-0.1,0.4-0.3,0.5l0,0l-5.6,3.3c0,0,0,0,0,0C18.5,15.4,18.4,15.5,18.3,15.5z M18.4,15
				L18.4,15L18.4,15z M18.6,8.7v5.7l4.8-2.8L18.6,8.7z"/>
		</g>
	</g>
</g>
</svg>
