<?xml version="1.0" encoding="utf-8"?>
<!-- Generator: Adobe Illustrator 26.3.1, SVG Export Plug-In . SVG Version: 6.00 Build 0)  -->
<svg version="1.1" id="Layer_1" xmlns="http://www.w3.org/2000/svg" xmlns:xlink="http://www.w3.org/1999/xlink" x="0px" y="0px"
	 viewBox="0 0 40 40" style="enable-background:new 0 0 40 40;" xml:space="preserve">
<style type="text/css">
	.st0{clip-path:url(#SVGID_00000121991809329251487690000000793915061859309485_);}
	.st1{fill:#F4F4F4;}
</style>
<g>
	<defs>
		<path id="SVGID_1_" d="M74-1.7h30c2.8,0,5,2.2,5,5v30c0,2.8-2.2,5-5,5H74c-2.8,0-5-2.2-5-5v-30C69,0.6,71.2-1.7,74-1.7z"/>
	</defs>
	<clipPath id="SVGID_00000104686586144168006460000008193899330143830700_">
		<use xlink:href="#SVGID_1_"  style="overflow:visible;"/>
	</clipPath>
	<g style="clip-path:url(#SVGID_00000104686586144168006460000008193899330143830700_);">
		<path class="st1" d="M108.2,15.4V8.1c0-1.2-1-2.2-2.2-2.2h-1.6l-2.1-6.1c-0.3-0.9-1.1-1.5-2-1.5H85.1c-0.3,0-0.6,0.3-0.6,0.6
			c0,0.3,0.3,0.6,0.6,0.6h15.2c0.4,0,0.8,0.3,0.9,0.7l2.1,6.2c0.1,0.4,0.6,0.7,1,0.7h1.7c0.5,0,1,0.4,1,1v1.1h-1.4
			c-0.6,0-1.1,0.5-1.1,1.1v1.4c0,0.6,0.5,1.1,1.1,1.1h1.4v2.5h-1.6c-0.7-1.8-2.5-3.1-4.6-3.1c-1.6,0-3,0.7-3.9,1.9
			c-2.1-2-4.9-3.3-8-3.3c-3.1,0-5.9,1.3-8,3.3c-0.9-1.2-2.4-1.9-3.9-1.9c-2.1,0-3.8,1.3-4.6,3.1H71v-2.5h1.4c0.6,0,1.1-0.5,1.1-1.1
			v-1.4c0-0.6-0.5-1.1-1.1-1.1H71c0.1-0.4,0.3-0.7,0.7-0.8l4.6-1.2C76.6,7,76.9,6.8,77,6.5l3-6.5c0.2-0.4,0.5-0.6,0.9-0.6h1.5
			c0.3,0,0.6-0.3,0.6-0.6c0-0.3-0.3-0.6-0.6-0.6h-1.5c-0.8,0-1.6,0.5-2,1.3L76,6l-4.6,1.2c-1,0.2-1.6,1.1-1.6,2.1v6.1
			c-0.5,0.1-0.8,0.5-0.8,1V18c0,0.6,0.5,1.1,1.1,1.1h2.5c0.7,1.8,2.5,3.1,4.6,3.1c0.2,0,0.3,0,0.5,0c0,0.1,0,0.2,0,0.2
			c0,5.4,3.8,10,8.9,11.1v4.3c0,0.3,0.3,0.6,0.6,0.6c0.3,0,0.6-0.3,0.6-0.6v-4.1c0.4,0,0.9,0.1,1.3,0.1c0.4,0,0.9,0,1.3-0.1v4.1
			c0,0.3,0.3,0.6,0.6,0.6c0.3,0,0.6-0.3,0.6-0.6v-4.3c5.1-1.1,8.9-5.7,8.9-11.1c0-0.1,0-0.2,0-0.2c0.2,0,0.3,0,0.5,0
			c2.1,0,3.8-1.3,4.6-3.1h2.5c0.6,0,1.1-0.5,1.1-1.1v-1.6C109,15.9,108.7,15.5,108.2,15.4z M105.7,11.7v-1.4h1.4v1.4H105.7z
			 M72.3,11.7H71v-1.4h1.4V11.7z M70.2,17.9v-1.4h2c0,0.2,0,0.4,0,0.7c0,0.2,0,0.5,0,0.7H70.2z M77.1,21c-2.1,0-3.8-1.7-3.8-3.8
			s1.7-3.8,3.8-3.8c1.3,0,2.4,0.6,3.1,1.7c-0.5,0.6-0.9,1.2-1.3,1.9c-0.1-0.9-0.9-1.7-1.8-1.7c-1,0-1.8,0.8-1.8,1.8
			c0,1,0.8,1.8,1.8,1.8c0.4,0,0.8-0.1,1.1-0.4c-0.2,0.7-0.4,1.5-0.5,2.2C77.5,21,77.3,21,77.1,21z M77.8,17.2c0,0.4-0.3,0.7-0.7,0.7
			c-0.4,0-0.7-0.3-0.7-0.7s0.3-0.7,0.7-0.7C77.5,16.5,77.8,16.8,77.8,17.2z M89,32.6c-5.6,0-10.2-4.6-10.2-10.2S83.4,12.1,89,12.1
			c5.6,0,10.2,4.6,10.2,10.2S94.6,32.6,89,32.6z M100.9,21c-0.2,0-0.4,0-0.6-0.1c-0.1-0.8-0.3-1.5-0.5-2.2c0.3,0.2,0.7,0.4,1.1,0.4
			c1,0,1.8-0.8,1.8-1.8c0-1-0.8-1.8-1.8-1.8c-1,0-1.7,0.7-1.8,1.7c-0.4-0.7-0.8-1.3-1.3-1.9c0.7-1,1.9-1.7,3.1-1.7
			c2.1,0,3.8,1.7,3.8,3.8C104.7,19.3,103,21,100.9,21z M100.3,17.2c0-0.4,0.3-0.7,0.7-0.7s0.7,0.3,0.7,0.7s-0.3,0.7-0.7,0.7
			S100.3,17.6,100.3,17.2z M107.8,17.9h-2c0-0.2,0-0.4,0-0.7c0-0.2,0-0.5,0-0.7h2V17.9z"/>
		<path class="st1" d="M101.6,6.6c0.2-0.3,0.3-0.6,0.2-0.9l-1.3-4.1c-0.1-0.4-0.5-0.7-1-0.7H92c-0.6,0-1.1,0.5-1.1,1.1V6
			c0,0.6,0.5,1.1,1.1,1.1h3c0.3,0,0.6-0.3,0.6-0.6c0-0.3-0.3-0.6-0.6-0.6h-2.9V2h7.3l1.2,3.9h-2.8c-0.3,0-0.6,0.3-0.6,0.6
			c0,0.3,0.3,0.6,0.6,0.6h3C101.1,7.1,101.4,6.9,101.6,6.6z"/>
		<path class="st1" d="M89.6,6V1.9c0-0.6-0.5-1.1-1.1-1.1h-7c-0.4,0-0.8,0.3-1,0.7l-1.7,4.1c-0.1,0.3-0.1,0.7,0.1,1
			c0.2,0.3,0.5,0.5,0.9,0.5h8.7C89.1,7.1,89.6,6.6,89.6,6z M88.4,5.9H80L81.6,2h6.8L88.4,5.9L88.4,5.9z"/>
		<path class="st1" d="M85.8,8.3c-0.3,0-0.6,0.3-0.6,0.6c0,0.3,0.3,0.6,0.6,0.6h1.6c0.3,0,0.6-0.3,0.6-0.6c0-0.3-0.3-0.6-0.6-0.6
			H85.8z"/>
		<path class="st1" d="M98,8.3c-0.3,0-0.6,0.3-0.6,0.6c0,0.3,0.3,0.6,0.6,0.6h1.6c0.3,0,0.6-0.3,0.6-0.6c0-0.3-0.3-0.6-0.6-0.6H98z"
			/>
		<path class="st1" d="M89,13.5c-1.3,0-2.5,0.3-3.6,0.8c-0.3,0.1-0.4,0.5-0.3,0.8c0.1,0.3,0.5,0.4,0.8,0.3c1-0.4,2-0.7,3.1-0.7
			c4.2,0,7.7,3.5,7.7,7.7c0,4.2-3.5,7.7-7.7,7.7s-7.7-3.5-7.7-7.7c0-2.1,0.9-4.2,2.5-5.6c0.2-0.2,0.3-0.6,0-0.8
			c-0.2-0.2-0.6-0.3-0.8,0c-1.8,1.7-2.8,4-2.8,6.5c0,4.9,4,8.9,8.9,8.9s8.9-4,8.9-8.9C97.9,17.5,93.9,13.5,89,13.5z"/>
		<path class="st1" d="M89,28.7c3.5,0,6.3-2.8,6.3-6.3c0-3.5-2.8-6.3-6.3-6.3c-3.5,0-6.3,2.8-6.3,6.3C82.7,25.8,85.5,28.7,89,28.7z
			 M89,17.2c2.9,0,5.2,2.3,5.2,5.2c0,2.9-2.3,5.2-5.2,5.2c-2.9,0-5.2-2.3-5.2-5.2C83.8,19.5,86.2,17.2,89,17.2z"/>
		<path class="st1" d="M87.6,24.6c0.1,0.1,0.3,0.2,0.4,0.2c0.1,0,0.3-0.1,0.4-0.2l3.5-3.5c0.2-0.2,0.2-0.6,0-0.8s-0.6-0.2-0.8,0
			L88,23.4l-1.2-1.2c-0.2-0.2-0.6-0.2-0.8,0c-0.2,0.2-0.2,0.6,0,0.8L87.6,24.6z"/>
	</g>
</g>
<g>
	<g>
		<g>
			<g>
				<path class="st1" d="M25.6,35.9c-0.3,0-0.5-0.2-0.5-0.5c0-5.5,2.9-8.9,3.9-9.8l-6-13.1l-6,13.1c0.9,1,3.9,4.4,3.9,9.8
					c0,0.3-0.2,0.5-0.5,0.5c-0.3,0-0.5-0.2-0.5-0.5c0-5.9-3.8-9.3-3.8-9.3c-0.2-0.2-0.2-0.4-0.1-0.6L22.5,11
					c0.1-0.2,0.3-0.3,0.5-0.3h0c0.2,0,0.4,0.1,0.5,0.3l6.6,14.5c0.1,0.2,0,0.5-0.1,0.6c0,0-3.8,3.4-3.8,9.3
					C26.2,35.7,25.9,35.9,25.6,35.9z"/>
			</g>
			<g>
				<path class="st1" d="M23,26c-0.2,0-0.4-0.2-0.4-0.4V11.2c0-0.2,0.2-0.4,0.4-0.4s0.4,0.2,0.4,0.4v14.4C23.4,25.8,23.2,26,23,26z"
					/>
			</g>
			<path class="st1" d="M24.7,25.6c0,0.9-0.8,1.7-1.7,1.7c-0.9,0-1.7-0.8-1.7-1.7c0-0.9,0.8-1.7,1.7-1.7
				C23.9,23.9,24.7,24.6,24.7,25.6z"/>
		</g>
		<g>
			<g>
				<path class="st1" d="M6.9,18.6C6.9,18.6,6.9,18.6,6.9,18.6c-0.2,0-0.4-0.2-0.4-0.4c0-0.1,0.1-3,2.6-5.3c2.4-2.1,6.1-3,11-2.5
					c5.4,0.5,9.6-0.3,12.1-2.5c2.1-1.8,2.5-4,2.5-5.1c0-0.2,0.2-0.4,0.4-0.4c0.2,0,0.4,0.2,0.4,0.4c0,1.3-0.5,3.7-2.8,5.8
					c-2.7,2.4-7.1,3.3-12.7,2.8c-4.7-0.5-8.1,0.3-10.3,2.3c-2.3,2-2.3,4.6-2.3,4.7C7.3,18.4,7.1,18.6,6.9,18.6z"/>
			</g>
			<rect x="32.5" y="1.3" class="st1" width="4" height="4"/>
			<rect x="4.1" y="15.4" class="st1" width="5.6" height="5.6"/>
		</g>
		<g>
			<g>
				<path class="st1" d="M33,17.7C32.9,17.7,32.9,17.7,33,17.7l-19-13.1c0,0-0.1-0.1,0-0.1c0,0,0.1-0.1,0.1,0l19,13.1
					C33.1,17.6,33.1,17.7,33,17.7C33,17.7,33,17.7,33,17.7z"/>
			</g>
			<g>
				<path class="st1" d="M34,17.6c0,0.6-0.5,1-1,1s-1-0.5-1-1s0.5-1,1-1S34,17.1,34,17.6z"/>
				<path class="st1" d="M15.3,4.6c0,0.6-0.5,1-1,1c-0.6,0-1-0.5-1-1c0-0.6,0.5-1,1-1C14.8,3.5,15.3,4,15.3,4.6z"/>
			</g>
		</g>
	</g>
	<rect x="16" y="35.4" class="st1" width="14" height="3.1"/>
</g>
</svg>
