<?xml version="1.0" encoding="utf-8"?>
<!-- Generator: Adobe Illustrator 26.3.1, SVG Export Plug-In . SVG Version: 6.00 Build 0)  -->
<svg version="1.1" id="Layer_1" xmlns="http://www.w3.org/2000/svg" xmlns:xlink="http://www.w3.org/1999/xlink" x="0px" y="0px"
	 viewBox="0 0 40 40" style="enable-background:new 0 0 40 40;" xml:space="preserve">
<style type="text/css">
	.st0{fill:#FFFFFF;}
</style>
<path class="st0" d="M145.1,14.1h-1.3c-0.7,0-1.2,0.5-1.2,1.2v0.2l-1.4,0.5c-0.5,0.1-0.8,0.5-1,1l-4.7,0v-1.3c0-0.7-0.5-1.2-1.2-1.2
	h-1.3c-0.7,0-1.2,0.5-1.2,1.2v1.3h-1.4v-1.3c0-0.7-0.5-1.2-1.2-1.2h-1.3c-0.7,0-1.2,0.5-1.2,1.2v1.3h-1.4v-1.3
	c0-0.7-0.5-1.2-1.2-1.2h-1.3c-0.7,0-1.2,0.5-1.2,1.2v1.3h-0.2c-8.3,0-15.1,6.8-15.1,15.1s6.8,15.1,15.1,15.1c3.1,0,6.2-1,8.7-2.8
	c0.3-0.2,0.3-0.6,0.1-0.8c-0.2-0.3-0.6-0.3-0.8-0.1c-2.4,1.7-5.1,2.6-8,2.6c-7.7,0-13.9-6.3-13.9-13.9s6.3-13.9,13.9-13.9h16.1v5.8
	l-16.1,0c0,0,0,0,0,0c-2.1,0-4,0.8-5.6,2.2c-0.2,0.2-0.2,0.6,0,0.8c0.2,0.2,0.6,0.3,0.8,0c1.3-1.2,3-1.9,4.8-1.9c3.9,0,7,3.1,7,7
	c0,3.9-3.1,7-7,7c-3.9,0-7-3.1-7-7c0-1.1,0.2-2.1,0.7-3.1c0.1-0.3,0-0.6-0.3-0.8c-0.3-0.1-0.6,0-0.8,0.3c-0.6,1.1-0.8,2.3-0.8,3.6
	c0,4.5,3.7,8.2,8.2,8.2c4.5,0,8.2-3.7,8.2-8.2c0-3-1.6-5.6-4-7h7.8c1.2,2.1,1.9,4.5,1.9,7c0,3.6-1.4,7-3.9,9.7
	c-0.2,0.2-0.2,0.6,0,0.8c0.2,0.2,0.6,0.2,0.8,0c2.7-2.8,4.2-6.6,4.2-10.5c0-2.4-0.6-4.8-1.7-7l5.4,0c0.2,0.5,0.5,0.8,1,1l1.4,0.5
	v0.2c0,0.7,0.5,1.2,1.2,1.2h1.3c0.7,0,1.2-0.5,1.2-1.2V15.3C146.3,14.6,145.7,14.1,145.1,14.1z M124.1,16.9h-1.4v-1.3c0,0,0,0,0,0
	h1.3c0,0,0,0,0,0V16.9z M129.2,16.9h-1.4v-1.3c0,0,0,0,0,0h1.3c0,0,0,0,0,0V16.9z M134.2,16.9h-1.4v-1.3c0,0,0,0,0,0h1.3
	c0,0,0,0,0,0V16.9z M140.1,23.9h-1.4v-5.8h1.4V23.9z M145.1,26.7C145.1,26.7,145.1,26.7,145.1,26.7l-1.3,0c0,0,0,0,0,0v-6
	c0-0.3-0.3-0.6-0.6-0.6s-0.6,0.3-0.6,0.6v4.5l-1.1-0.3c-0.2,0-0.3-0.2-0.3-0.3v-7.1c0-0.2,0.1-0.3,0.3-0.3l1.1-0.3V18
	c0,0.3,0.3,0.6,0.6,0.6s0.6-0.3,0.6-0.6v-2.7c0,0,0,0,0,0h1.3c0,0,0,0,0,0V26.7z"/>
<path class="st0" d="M133.2,32c0-0.4-0.4-0.8-0.8-0.8c-0.4,0-0.8,0.4-0.8,0.8c0,0.4,0.4,0.8,0.8,0.8C132.9,32.8,133.2,32.5,133.2,32
	z"/>
<path class="st0" d="M110.4,32.8c0.4,0,0.8-0.4,0.8-0.8c0-0.4-0.4-0.8-0.8-0.8c-0.4,0-0.8,0.4-0.8,0.8
	C109.6,32.5,109.9,32.8,110.4,32.8z"/>
<path class="st0" d="M121.4,43.9c0.4,0,0.8-0.4,0.8-0.8c0-0.4-0.4-0.8-0.8-0.8s-0.8,0.4-0.8,0.8C120.6,43.5,121,43.9,121.4,43.9z"/>
<path class="st0" d="M121.4,21.8c0.4,0,0.8-0.4,0.8-0.8c0-0.4-0.4-0.8-0.8-0.8s-0.8,0.4-0.8,0.8C120.6,21.4,121,21.8,121.4,21.8z"/>
<path class="st0" d="M133.2,21c0-0.4-0.4-0.8-0.8-0.8c-0.4,0-0.8,0.4-0.8,0.8c0,0.4,0.4,0.8,0.8,0.8C132.9,21.8,133.2,21.4,133.2,21
	z"/>
<path class="st0" d="M121.4,37.7c3.1,0,5.6-2.5,5.6-5.6c0-3.1-2.5-5.6-5.6-5.6s-5.6,2.5-5.6,5.6C115.8,35.1,118.3,37.7,121.4,37.7z
	 M121.4,36.5c-0.8,0-1.6-0.2-2.3-0.6c0.8-0.6,1.4-1.4,1.9-2c0.1,0,0.3,0.1,0.4,0.1c0.3,0,0.5-0.1,0.8-0.2c0.5,0.6,1,1.4,1.4,2.2
	C122.9,36.3,122.2,36.5,121.4,36.5z M120.7,32c0-0.4,0.3-0.7,0.7-0.7s0.7,0.3,0.7,0.7s-0.3,0.7-0.7,0.7S120.7,32.4,120.7,32z
	 M124.5,35.2c-0.4-0.9-1-1.7-1.5-2.3c0-0.1,0.1-0.2,0.1-0.2c0.8,0.1,1.7,0.3,2.6,0.6C125.5,34,125.1,34.7,124.5,35.2z M125.9,32
	C125.9,32.1,125.9,32.1,125.9,32c-0.9-0.3-1.9-0.5-2.7-0.5c-0.1-0.4-0.4-0.7-0.7-1c0.3-0.7,0.7-1.6,1.3-2.3
	C125,29,125.9,30.4,125.9,32z M121.4,27.6c0.4,0,0.8,0.1,1.2,0.2c-0.6,0.8-1,1.7-1.3,2.4c-0.1,0-0.2,0-0.3,0
	c-0.3-0.7-0.6-1.6-0.7-2.5C120.7,27.6,121,27.6,121.4,27.6z M119.2,28.1c0.2,1,0.5,1.9,0.8,2.6c-0.3,0.3-0.5,0.7-0.5,1.1
	c-0.8,0.1-1.7,0.2-2.6,0.1C117,30.3,117.9,28.9,119.2,28.1z M118,33.2c0.7,0,1.3-0.1,1.9-0.2c0,0.1,0.1,0.1,0.1,0.2
	c-0.5,0.6-1.1,1.3-1.8,1.9c-0.5-0.5-0.9-1.2-1.1-2C117.4,33.1,117.7,33.2,118,33.2z"/>
<g>
	<path class="st0" d="M27.7,16.7c0,0.4,0.2,0.7,0.6,0.9c0.1,0.1,0.3,0.1,0.4,0.1c0.2,0,0.5-0.1,0.6-0.3l2.8-2.6
		c0.3-0.2,0.4-0.6,0.4-0.9c0-0.3-0.1-0.7-0.4-0.9l-2.8-2.6c-0.3-0.3-0.7-0.3-1-0.2c-0.3,0.2-0.6,0.5-0.6,0.9c0,0.3,0.1,0.5,0.3,0.7
		l2.3,2.1L28,16.1C27.8,16.2,27.7,16.5,27.7,16.7z M28.3,16.4l2.5-2.3c0,0,0.1-0.1,0.1-0.2s0-0.1-0.1-0.2l-2.5-2.3
		c-0.1-0.1-0.2-0.2-0.2-0.4c0-0.2,0.1-0.4,0.3-0.4c0.1,0,0.1,0,0.2,0c0.1,0,0.2,0,0.3,0.1l2.8,2.6c0.2,0.1,0.2,0.4,0.2,0.6
		c0,0.2-0.1,0.4-0.2,0.6L29,17.1c-0.1,0.1-0.3,0.2-0.5,0.1c-0.2-0.1-0.3-0.2-0.3-0.4C28.2,16.6,28.2,16.5,28.3,16.4z"/>
	<path class="st0" d="M22.5,11.2c0-0.4-0.2-0.7-0.6-0.9c-0.3-0.2-0.7-0.1-1,0.2L18.2,13c-0.3,0.2-0.4,0.6-0.4,0.9
		c0,0.3,0.1,0.7,0.4,0.9l2.8,2.6c0.2,0.2,0.4,0.3,0.6,0.3c0.1,0,0.3,0,0.4-0.1c0.3-0.2,0.6-0.5,0.6-0.9c0-0.3-0.1-0.5-0.3-0.7
		L19.9,14l2.3-2.1C22.4,11.7,22.5,11.4,22.5,11.2z M21.9,11.5l-2.5,2.3c0,0-0.1,0.1-0.1,0.2s0,0.1,0.1,0.2l2.5,2.3
		c0.1,0.1,0.2,0.2,0.2,0.4c0,0.2-0.1,0.4-0.3,0.4c-0.2,0.1-0.4,0-0.5-0.1l-2.8-2.6c-0.2-0.1-0.2-0.4-0.2-0.6c0-0.2,0.1-0.4,0.2-0.6
		l2.8-2.6c0.1-0.1,0.2-0.1,0.3-0.1c0.1,0,0.1,0,0.2,0c0.2,0.1,0.3,0.2,0.3,0.4C22.1,11.3,22,11.4,21.9,11.5z"/>
	<path class="st0" d="M26.7,19.7c0.1,0,0.2,0,0.3,0c0.5-0.2,0.7-0.7,0.6-1.2l-3.2-9.6c-0.1-0.2-0.2-0.4-0.5-0.5
		c-0.2-0.1-0.5-0.1-0.7,0c-0.2,0.1-0.4,0.2-0.5,0.5c-0.1,0.2-0.1,0.5,0,0.7l3.2,9.6C26,19.4,26.3,19.7,26.7,19.7z M23.1,9
		c0.1-0.1,0.1-0.2,0.3-0.2c0,0,0.1,0,0.1,0c0.1,0,0.1,0,0.2,0c0.1,0.1,0.2,0.1,0.2,0.3l3.2,9.6c0.1,0.2,0,0.5-0.3,0.6
		c-0.2,0.1-0.5,0-0.6-0.3l-3.2-9.6C23,9.2,23,9.1,23.1,9z"/>
	<path class="st0" d="M25.1,22.6c-0.7,0-1.3,0.6-1.3,1.3c0,0.7,0.6,1.3,1.3,1.3s1.3-0.6,1.3-1.3C26.4,23.1,25.8,22.6,25.1,22.6z
		 M25.1,24.6c-0.4,0-0.8-0.4-0.8-0.8c0-0.4,0.4-0.8,0.8-0.8c0.4,0,0.8,0.4,0.8,0.8C25.9,24.3,25.6,24.6,25.1,24.6z"/>
	<path class="st0" d="M36.6,5.3h-23c-0.6,0-1,0.5-1,1v7.1c0,0.1,0,0.1,0.1,0.2c0,0,0.1,0.1,0.2,0.1c0.4,0,0.9,0,1.3,0
		c0.1,0,0.1,0,0.2-0.1c0,0,0.1-0.1,0.1-0.2V7.2h21.3V21H20.6c-0.1,0-0.2,0.1-0.2,0.2c0,0.5-0.1,0.9-0.3,1.3c0,0.1,0,0.1,0,0.2
		l0.6,1.3c0,0,0,0.1,0.1,0.1c0.9,0.6,1.7,1.3,2.4,2c0,0,0.1,0.1,0.2,0.1h10.2c0.1,0,0.2-0.1,0.2-0.2c0-0.9-0.7-1.6-1.6-1.6h-2.3
		l-0.8-1.5h7.5c0.6,0,1-0.5,1-1V6.3C37.6,5.8,37.1,5.3,36.6,5.3z M37.1,21.9c0,0.3-0.2,0.6-0.6,0.6h-7.9c-0.1,0-0.2,0-0.2,0.1
		c0,0.1,0,0.2,0,0.2l1,1.9c0,0.1,0.1,0.1,0.2,0.1h2.4c0.6,0,1,0.4,1.1,0.9h-9.9c-0.7-0.7-1.5-1.4-2.4-2l-0.5-1.1
		c0.1-0.4,0.2-0.8,0.2-1.1H36c0.1,0,0.2-0.1,0.2-0.2V6.9c0-0.1-0.1-0.2-0.2-0.2H14.2c-0.1,0-0.2,0.1-0.2,0.2v6.3c-0.3,0-0.6,0-0.9,0
		V6.3c0-0.3,0.2-0.6,0.6-0.6h23c0.3,0,0.6,0.2,0.6,0.6V21.9z"/>
	<path class="st0" d="M10.6,24.6c0.9,0.6,1.9,1,3,1s2.1-0.3,3-1c1.3-0.9,2.1-2.5,2.1-4.1c0-2.8-2.3-5-5-5s-5,2.3-5,5
		C8.5,22.1,9.3,23.6,10.6,24.6z M13.5,16c2.5,0,4.6,2,4.6,4.6c0,1.4-0.7,2.8-1.9,3.7c-0.8,0.6-1.7,0.9-2.7,0.9c-1,0-1.9-0.3-2.7-0.9
		C9.7,23.4,9,22,9,20.5C9,18,11,16,13.5,16z"/>
	<path class="st0" d="M18.2,25.3c-0.1,0-0.2,0-0.3,0c-1.2,1.2-2.8,1.9-4.4,1.9s-3.3-0.7-4.4-1.9c-0.1-0.1-0.2-0.1-0.3,0
		C5.4,26.9,3,30,2.4,33.7c0,0.2,0,0.5,0.2,0.7c0.2,0.2,0.4,0.3,0.6,0.3h20.7c0.2,0,0.5-0.1,0.6-0.3c0.2-0.2,0.2-0.4,0.2-0.7
		C24.1,30,21.7,26.9,18.2,25.3z M24.1,34.1c-0.1,0.1-0.2,0.1-0.3,0.1H3.2c-0.1,0-0.2,0-0.3-0.1c-0.1-0.1-0.1-0.2-0.1-0.3
		c0.6-3.5,2.8-6.5,6-8c1.3,1.2,2.9,1.9,4.7,1.9c1.8,0,3.4-0.7,4.7-1.9c3.2,1.5,5.5,4.5,6,8C24.2,33.9,24.2,34,24.1,34.1z"/>
</g>
</svg>
